<?xml version="1.0" standalone="no"?>
<!DOCTYPE svg PUBLIC "-//W3C//DTD SVG 20010904//EN"
 "http://www.w3.org/TR/2001/REC-SVG-20010904/DTD/svg10.dtd">
<svg version="1.0" xmlns="http://www.w3.org/2000/svg"
 width="700.000000pt" height="700.000000pt" viewBox="0 0 700.000000 700.000000"
 preserveAspectRatio="xMidYMid meet">
<metadata>
Created by potrace 1.11, written by Peter Selinger 2001-2013
</metadata>
<g transform="translate(0.000000,700.000000) scale(0.100000,-0.100000)"
fill="#000000" stroke="none">
<path d="M2360 6290 c-16 -38 -103 -118 -211 -194 -251 -177 -327 -245 -399
-358 -22 -35 -43 -67 -47 -73 -13 -16 -61 -172 -83 -265 -22 -93 -32 -353 -17
-445 8 -48 6 -52 -34 -105 -22 -30 -42 -56 -43 -57 -1 -1 2 37 7 85 5 49 5
146 0 216 -7 108 -11 131 -26 140 -15 9 -22 7 -37 -11 -10 -13 -22 -23 -28
-23 -19 0 -40 -37 -63 -110 l-23 -75 -9 65 c-5 36 -13 82 -19 103 -8 34 -12
38 -36 35 -25 -3 -27 -7 -27 -48 0 -25 3 -83 7 -130 l7 -85 -20 25 c-11 14
-37 45 -58 70 -29 35 -40 58 -46 97 -4 29 -13 57 -21 64 -22 18 -44 3 -44 -32
0 -26 -3 -30 -18 -23 -9 4 -30 8 -47 8 -49 2 -43 -27 18 -74 l54 -42 17 -89
c9 -49 19 -97 23 -107 3 -9 -18 21 -47 68 -66 107 -72 115 -144 162 -76 49
-96 49 -131 -2 -15 -22 -31 -37 -35 -35 -15 9 -60 -14 -60 -32 0 -9 16 -31 35
-49 19 -17 35 -41 35 -52 0 -37 40 -131 75 -177 30 -38 31 -43 12 -35 -146 60
-139 54 -165 117 -28 68 -48 94 -68 86 -18 -7 -18 -41 1 -87 17 -41 17 -41
-31 -21 -67 28 -103 -23 -44 -65 16 -11 63 -36 105 -55 41 -19 75 -38 75 -42
0 -5 20 -29 45 -55 l44 -48 -45 0 c-62 0 -119 35 -195 121 -59 66 -91 84 -102
56 -8 -21 21 -73 70 -127 46 -51 44 -60 -18 -60 -47 0 -91 -27 -87 -53 2 -14
11 -23 26 -25 12 -2 35 -15 50 -29 15 -14 42 -33 61 -42 l34 -18 -56 5 c-78 6
-107 -3 -107 -32 0 -30 19 -45 64 -53 48 -8 53 -18 16 -33 -66 -27 -111 -110
-76 -139 11 -9 29 -2 88 37 40 27 91 56 114 65 38 14 45 14 111 -6 l71 -21
-65 -50 c-36 -28 -74 -57 -83 -64 -10 -7 -54 -17 -98 -21 -93 -10 -102 -14
-102 -47 0 -27 30 -44 80 -44 l28 0 -16 -51 c-15 -45 -15 -53 -1 -77 19 -34
50 -35 65 -2 6 14 22 47 35 75 l24 49 89 22 89 23 -96 -97 c-54 -54 -97 -105
-97 -114 0 -9 7 -24 16 -32 23 -23 56 -3 139 86 38 40 65 64 61 53 -18 -42
-19 -182 -2 -231 9 -26 16 -49 16 -50 0 -1 -25 -14 -55 -28 -50 -23 -70 -44
-45 -47 6 -1 14 -2 19 -3 28 -4 16 -14 -21 -20 -47 -7 -137 -49 -211 -99 -54
-36 -59 -64 -12 -59 22 3 12 -5 -40 -32 -77 -39 -215 -149 -215 -171 0 -11 11
-15 38 -15 l37 0 -60 -55 c-33 -30 -79 -67 -103 -82 -50 -33 -51 -57 -3 -61
l34 -3 -48 -35 c-57 -40 -134 -71 -204 -80 -40 -5 -51 -10 -51 -25 0 -10 13
-25 30 -34 38 -20 165 -66 210 -76 38 -9 119 5 164 28 27 14 28 14 21 -3 -29
-69 6 -74 94 -14 57 38 59 39 65 17 3 -12 6 -35 6 -50 0 -61 51 -44 148 49 57
55 62 58 57 32 -10 -43 15 -45 86 -7 77 42 154 110 180 161 11 22 22 38 24 36
3 -2 12 -56 21 -119 66 -475 282 -911 625 -1264 301 -309 655 -513 1073 -619
333 -85 737 -89 1066 -10 108 25 264 74 336 105 l42 17 5 -28 c8 -38 34 -63
55 -51 9 5 28 38 42 72 29 74 54 92 163 120 39 10 74 19 76 19 3 0 -43 -49
-102 -109 -59 -59 -107 -111 -107 -114 0 -3 4 -17 10 -31 17 -46 46 -33 145
68 l92 94 -13 -57 c-28 -115 -8 -239 47 -296 16 -17 29 -36 29 -43 0 -7 6 -12
14 -12 12 0 12 6 3 29 -15 40 5 228 33 312 18 53 35 77 99 144 43 44 93 104
111 133 18 29 34 51 37 48 7 -7 -36 -86 -76 -141 -63 -85 -130 -203 -151 -265
-22 -65 -29 -260 -10 -260 6 0 10 39 10 98 0 120 14 171 77 277 51 85 135 207
140 202 4 -4 -42 -170 -65 -237 -11 -30 -43 -106 -71 -168 -58 -128 -71 -172
-49 -172 8 0 15 12 16 29 1 16 21 68 43 117 23 49 57 127 76 174 30 75 33 80
27 40 -8 -64 -85 -288 -111 -327 -17 -25 -19 -33 -8 -33 20 0 38 32 71 127 16
46 32 83 35 83 3 0 9 -31 12 -69 7 -79 29 -141 52 -141 14 0 14 3 1 22 -33 52
-47 238 -26 333 8 34 9 30 6 -31 -2 -39 0 -97 5 -129 10 -78 50 -195 65 -195
9 0 5 21 -13 72 -38 109 -44 273 -12 388 l22 85 14 -60 c7 -33 36 -107 64
-163 50 -101 51 -105 40 -145 -7 -23 -28 -68 -47 -100 -19 -32 -34 -63 -34
-68 0 -5 15 -9 34 -9 30 0 38 6 63 48 16 26 34 60 41 76 l13 29 73 -72 c41
-39 81 -71 89 -71 28 0 38 26 31 81 l-7 54 53 -48 c65 -58 93 -60 98 -6 3 33
-2 39 -70 96 -61 50 -77 71 -97 119 -13 33 -45 92 -71 131 -46 70 -81 168 -47
133 123 -129 182 -208 227 -304 33 -70 55 -106 69 -111 35 -11 43 3 36 58 l-7
50 30 -22 c38 -26 78 -27 92 -2 17 33 12 46 -30 70 -69 39 -97 69 -146 159
-48 89 -79 136 -123 186 -75 83 152 -86 303 -226 69 -65 130 -118 135 -118 17
0 39 40 34 60 -12 46 -272 251 -470 372 -70 43 -123 78 -118 78 5 0 61 -16
124 -36 179 -56 296 -121 444 -247 56 -49 81 -55 100 -26 17 26 0 64 -54 124
l-52 56 42 -17 c51 -20 71 -13 71 25 0 34 -17 48 -122 103 l-67 36 58 21 c55
20 111 60 111 79 0 14 -41 53 -50 47 -5 -3 -26 5 -47 17 -21 13 -51 30 -68 37
l-30 13 50 22 c28 13 77 26 110 29 95 10 179 43 234 93 42 38 55 44 92 44 26
0 57 8 76 19 32 20 85 90 102 134 6 16 20 26 41 31 18 3 47 21 66 40 38 38 44
74 20 131 -15 35 -15 35 11 35 15 0 47 10 71 21 34 17 49 32 64 65 13 31 25
44 39 44 11 0 34 13 51 30 23 24 29 37 27 64 -3 27 4 42 34 75 51 57 50 109
-2 128 -21 8 -17 13 53 63 59 42 76 60 76 78 0 21 -3 23 -22 17 -13 -4 -75
-11 -138 -15 -63 -4 -123 -11 -132 -14 -10 -5 -27 0 -45 13 -16 12 -52 24 -81
28 -44 5 -59 12 -95 49 -48 48 -101 64 -150 46 -26 -10 -37 -7 -97 24 -37 20
-85 38 -107 41 -50 7 -157 -20 -205 -52 -30 -20 -45 -23 -85 -19 -44 5 -110
-11 -207 -51 -16 -7 -18 -5 -13 9 4 10 7 30 7 46 0 25 3 29 28 27 23 -2 27 2
27 26 -1 22 3 27 25 27 14 0 43 -9 65 -20 42 -22 95 -27 95 -9 0 6 -10 19 -22
30 l-23 18 23 1 c13 0 35 -9 49 -20 31 -24 71 -26 80 -4 4 11 -2 23 -18 35
-22 17 -23 19 -4 18 11 0 31 -6 45 -14 30 -17 96 -19 106 -3 7 10 -14 32 -40
41 -6 2 -7 8 -3 13 4 4 17 3 27 -4 47 -29 147 -9 119 24 -6 8 -18 14 -25 14
-22 0 -16 16 11 28 15 7 25 8 25 2 0 -12 90 -13 109 -1 22 14 5 41 -25 41 -15
0 -24 3 -20 7 4 4 25 6 46 4 75 -5 104 21 58 52 -22 15 -22 15 17 10 51 -6 98
11 93 34 -2 11 -15 20 -33 23 l-30 5 46 27 c51 30 91 90 72 109 -15 15 -50 -3
-85 -45 l-27 -31 -1 26 c0 15 -7 33 -16 40 -14 11 -20 10 -40 -14 -14 -16 -24
-42 -25 -60 0 -18 -4 -41 -9 -52 -7 -17 -9 -15 -9 13 -2 62 -49 32 -58 -37 -7
-49 -33 -79 -33 -37 0 19 -5 26 -19 26 -20 0 -31 -18 -31 -54 0 -22 -17 -46
-32 -46 -4 0 -8 9 -8 20 0 15 -7 20 -25 20 -20 0 -26 -7 -35 -40 -6 -22 -19
-44 -30 -50 -28 -15 -31 -13 -24 15 4 17 1 27 -9 31 -26 9 -50 -12 -62 -52
-14 -51 -42 -58 -47 -12 -4 48 -29 42 -56 -14 -25 -52 -59 -67 -58 -25 1 35
-36 29 -54 -10 -12 -26 -21 -33 -45 -33 -22 0 -26 3 -17 12 14 14 16 44 3 52
-5 4 -23 -6 -40 -20 l-31 -26 0 66 0 66 39 -6 c25 -4 41 -2 46 6 10 15 -23 50
-48 50 -20 0 -20 1 3 25 17 19 27 22 41 15 10 -6 36 -10 58 -10 35 0 41 3 41
20 0 15 -9 22 -30 27 -37 7 -44 17 -26 32 11 9 25 9 55 1 37 -10 113 -2 128
14 21 21 -30 46 -93 46 -26 0 -31 12 -11 28 8 7 24 7 53 0 56 -15 96 -4 92 25
-2 17 -13 24 -46 32 l-43 11 23 21 c18 17 28 19 48 11 28 -10 86 -3 96 13 11
18 -18 39 -53 39 l-34 0 18 25 c14 19 27 24 63 25 69 1 92 9 88 34 -2 16 -11
22 -40 24 -21 2 -38 6 -38 9 0 2 9 16 20 30 17 22 29 26 73 27 46 1 52 4 55
23 3 17 -4 26 -24 33 -15 6 -34 8 -41 6 -11 -5 -11 -1 1 21 12 24 18 27 63 24
35 -2 53 2 62 13 19 22 6 34 -44 41 l-44 7 25 56 c26 60 28 97 4 97 -20 0 -60
-62 -60 -94 -1 -25 -2 -24 -18 9 -19 39 -45 46 -50 14 -2 -12 5 -47 16 -77 11
-33 15 -62 10 -69 -6 -10 -8 -9 -8 3 0 27 -27 44 -45 29 -18 -15 -19 -47 -1
-80 11 -21 10 -29 -3 -52 -19 -35 -27 -35 -35 -2 -5 17 -12 24 -24 22 -21 -4
-28 -58 -12 -88 9 -17 7 -25 -8 -45 l-20 -25 -10 30 c-6 17 -18 30 -28 30 -14
0 -16 -9 -12 -60 3 -49 1 -63 -13 -76 -17 -15 -19 -14 -25 10 -4 18 -12 26
-23 24 -12 -3 -16 -15 -16 -56 0 -35 -6 -57 -18 -69 -16 -16 -17 -16 -17 4 0
31 -10 53 -25 53 -19 0 -28 -35 -21 -84 5 -29 2 -47 -8 -61 -13 -19 -15 -18
-21 18 -8 42 -15 49 -34 38 -17 -11 -26 -87 -13 -104 9 -10 5 -18 -17 -34
l-28 -21 -12 91 c-6 51 -23 143 -37 206 l-25 113 22 24 c28 30 20 60 -12 44
-11 -7 -23 -10 -25 -7 -9 9 9 37 24 37 22 0 82 48 82 66 0 23 -30 28 -61 10
-47 -28 -36 4 16 47 25 21 45 45 45 53 0 23 -26 27 -53 9 -25 -16 -25 -16 -20
4 3 12 11 21 18 21 7 0 27 16 45 36 23 27 29 39 20 48 -8 8 -19 6 -40 -6 -39
-22 -38 -5 0 39 38 43 40 68 5 59 -35 -9 -31 4 15 60 39 48 46 64 34 77 -8 7
-46 -11 -56 -27 -4 -6 -8 3 -8 20 0 19 6 34 14 37 22 9 50 67 38 79 -12 12
-52 -7 -52 -25 0 -7 -5 -5 -10 4 -6 11 -3 28 10 55 11 21 20 46 20 56 0 28
-22 33 -41 10 -24 -31 -29 -28 -29 21 0 48 -22 87 -49 87 -40 0 -42 -72 -3
-115 16 -16 34 -43 40 -58 11 -27 11 -27 -10 -16 -18 9 -24 8 -34 -6 -16 -22
0 -50 39 -68 20 -9 27 -19 27 -41 l0 -29 -24 22 c-14 13 -29 20 -35 16 -20
-12 -11 -45 24 -84 33 -37 42 -60 29 -74 -4 -3 -15 4 -25 16 -17 21 -19 21
-35 5 -17 -17 -17 -20 14 -63 36 -52 46 -97 12 -56 -22 26 -50 22 -50 -7 0
-10 11 -33 25 -52 26 -35 36 -75 13 -52 -15 15 -45 16 -50 1 -2 -6 -31 45 -65
113 -226 454 -594 816 -1055 1038 -322 155 -626 223 -998 222 -264 -1 -463
-34 -715 -120 l-140 -47 12 70 c6 38 15 138 18 220 8 178 -7 308 -60 514 -19
73 -37 167 -41 207 -6 61 -10 74 -24 74 -10 0 -23 -13 -30 -30z m-26 -164
c-10 -42 -20 -76 -23 -76 -4 0 -13 20 -22 44 l-16 44 36 36 c19 19 37 34 39
31 2 -2 -4 -38 -14 -79z m69 -32 c5 -26 2 -33 -19 -42 -28 -13 -28 -11 -12 58
12 54 18 51 31 -16z m-143 -9 c5 -14 12 -38 16 -53 l6 -27 -20 30 c-11 17 -23
40 -27 53 -9 31 13 28 25 -3z m-43 -32 c6 -16 24 -48 38 -73 24 -40 25 -49 15
-75 l-12 -30 -46 93 c-39 78 -44 95 -32 102 22 14 24 13 37 -17z m17 -216 c4
-19 3 -26 -4 -22 -5 3 -10 12 -10 18 0 7 -15 44 -34 83 -51 106 -53 131 -3 34
24 -47 47 -98 51 -113z m-48 -1 c18 -49 17 -104 -1 -136 -13 -24 -14 -24 -20
-5 -4 11 -26 63 -50 115 -24 52 -48 112 -54 132 -8 35 -7 39 17 57 l27 19 33
-71 c19 -40 40 -89 48 -111z m253 112 c1 -11 -12 -21 -36 -28 -21 -7 -52 -20
-70 -30 l-32 -19 10 27 c14 37 48 72 84 87 26 12 31 11 37 -3 4 -9 7 -25 7
-34z m-426 -78 c9 -25 32 -83 53 -129 26 -60 37 -100 38 -137 1 -57 -15 -74
-25 -27 -3 15 -24 71 -46 123 -63 148 -77 198 -62 216 15 19 22 11 42 -46z
m387 3 c-30 -13 -71 -34 -90 -45 l-35 -20 30 26 c28 24 117 65 140 65 6 -1
-15 -12 -45 -26z m-387 -210 c20 -45 39 -99 42 -120 6 -35 5 -35 -13 12 -10
28 -30 73 -44 100 -28 54 -68 177 -67 204 0 9 11 -13 23 -49 13 -36 40 -102
59 -147z m57 162 c0 -5 -5 -3 -10 5 -5 8 -10 20 -10 25 0 6 5 3 10 -5 5 -8 10
-19 10 -25z m390 1 c0 -31 -4 -35 -47 -54 -92 -39 -183 -71 -183 -64 0 20 92
94 150 121 36 17 68 30 73 31 4 0 7 -15 7 -34z m-475 -218 c37 -78 58 -189 38
-201 -14 -9 -100 180 -108 237 -4 27 -16 78 -27 114 -15 50 -17 66 -7 78 10
12 17 0 39 -68 15 -46 44 -118 65 -160z m120 153 c13 -27 27 -69 30 -93 l5
-43 -13 45 c-8 25 -24 66 -35 93 -28 62 -19 61 13 -2z m-220 -117 c10 -49 26
-106 36 -126 11 -21 17 -38 14 -38 -15 0 -51 99 -71 195 -13 61 -24 112 -23
115 3 19 31 -72 44 -146z m574 100 c-9 -8 -65 -33 -125 -55 -59 -22 -113 -43
-119 -47 -6 -4 1 3 15 16 14 12 45 29 70 39 25 9 70 26 100 38 67 28 79 30 59
9z m-625 -94 c9 -47 27 -105 40 -130 13 -25 37 -71 54 -103 36 -67 47 -115 37
-154 -7 -28 -7 -27 -25 17 -9 25 -48 108 -85 185 -98 205 -99 209 -72 250 12
19 25 31 29 27 3 -4 14 -45 22 -92z m646 41 c0 -34 -60 -67 -219 -122 -46 -16
-95 -36 -108 -44 -12 -9 -23 -13 -23 -11 0 39 86 98 205 141 54 20 105 40 114
45 24 14 31 12 31 -9z m-655 -240 c47 -95 85 -176 85 -179 0 -10 -148 265
-166 307 -14 34 -19 59 -9 49 3 -3 44 -83 90 -177z m640 160 c-11 -11 -74 -41
-140 -66 -114 -44 -161 -66 -230 -110 l-30 -19 23 26 c32 35 103 72 197 103
44 14 105 39 135 55 66 35 70 36 45 11z m5 -56 c0 -24 -68 -62 -204 -114 -71
-27 -151 -63 -178 -80 -56 -35 -59 -36 -52 -16 12 30 148 110 285 166 79 32
145 58 147 58 1 1 2 -6 2 -14z m-637 -216 c57 -103 97 -216 90 -253 -5 -26
-23 -37 -23 -13 0 6 -47 97 -105 202 -58 104 -105 200 -105 212 0 12 5 34 11
50 10 28 10 28 48 -42 20 -39 58 -109 84 -156z m637 157 c0 -10 -100 -65 -165
-91 -99 -39 -202 -92 -257 -131 -53 -38 -65 -30 -17 10 47 40 145 90 255 130
55 21 118 48 140 61 42 26 44 27 44 21z m0 -55 c0 -14 -58 -60 -109 -86 -26
-13 -93 -42 -150 -64 -110 -44 -145 -64 -203 -120 -22 -20 -38 -29 -38 -21 0
23 93 105 161 143 35 19 100 49 144 66 44 18 103 45 130 60 56 32 65 35 65 22z
m-740 -116 c18 -33 55 -97 83 -143 27 -46 47 -85 45 -88 -14 -13 -162 237
-183 306 -7 24 -6 24 7 5 8 -11 30 -47 48 -80z m714 34 c-10 -12 -91 -56 -179
-99 -154 -75 -269 -148 -300 -193 -8 -12 -15 -17 -15 -11 0 18 79 102 124 134
24 16 95 50 158 75 64 25 140 61 170 80 64 40 66 41 42 14z m-668 -211 c30
-42 68 -106 85 -142 26 -55 30 -73 24 -108 l-7 -42 -21 39 c-11 22 -39 72 -62
110 -23 39 -67 117 -97 175 -46 87 -55 111 -51 141 l5 37 35 -67 c20 -36 60
-101 89 -143z m1964 164 c471 -86 866 -296 1201 -638 427 -438 650 -1015 626
-1624 -14 -332 -79 -593 -221 -885 -339 -695 -980 -1146 -1755 -1236 -150 -17
-454 -7 -606 20 -353 63 -673 201 -959 414 -105 79 -309 279 -396 387 -253
317 -410 687 -465 1100 -19 135 -19 425 -1 560 102 753 562 1391 1238 1715
215 103 398 159 633 195 170 26 539 22 705 -8z m-1294 -37 c-6 -16 -48 -39
-191 -105 -123 -57 -193 -101 -267 -169 -60 -55 -71 -57 -40 -6 51 83 120 133
326 235 165 82 189 88 172 45z m-936 -250 c0 -88 -5 -189 -10 -225 -22 -147
-43 -240 -56 -251 -19 -16 -18 -4 6 90 28 112 39 231 33 362 -6 125 2 222 18
198 5 -8 9 -86 9 -174z m-196 143 c4 -18 9 -73 12 -123 2 -49 7 -105 9 -123 3
-28 2 -32 -10 -22 -15 12 -30 100 -40 223 -5 63 -3 77 8 77 8 0 17 -14 21 -32z
m-184 7 c0 -8 -4 -15 -10 -15 -5 0 -10 7 -10 15 0 8 5 15 10 15 6 0 10 -7 10
-15z m652 -206 c37 -64 68 -120 68 -124 0 -22 -120 163 -157 242 -51 109 -55
130 -11 53 17 -30 62 -107 100 -171z m-340 155 c-11 -22 -27 -64 -37 -94 -19
-58 -35 -85 -35 -58 0 22 51 180 63 196 22 28 28 -6 9 -44z m757 -35 c-68 -39
-151 -92 -184 -117 -33 -26 -54 -39 -47 -30 30 38 167 133 249 174 131 65 123
53 -18 -27z m-1099 23 c38 -26 87 -79 163 -177 142 -183 158 -210 148 -255 -7
-30 -9 -32 -16 -15 -80 206 -155 303 -337 439 -21 16 -38 32 -38 37 0 17 26 8
80 -29z m339 -149 c-21 -79 -30 -95 -44 -73 -7 11 19 114 43 174 l17 41 3 -30
c2 -16 -6 -66 -19 -112z m200 17 c0 -75 -15 -37 -21 55 -5 66 -5 68 8 35 7
-19 13 -60 13 -90z m-768 -125 c11 -38 36 -97 55 -130 l34 -60 -44 48 c-68 72
-100 146 -104 238 -3 51 0 85 9 100 12 22 14 18 21 -51 4 -41 17 -106 29 -145z
m134 144 c50 -60 219 -368 240 -437 6 -21 5 -22 -12 -14 -10 6 -38 59 -62 119
-58 141 -143 283 -203 339 -26 25 -48 49 -48 55 0 14 53 -25 85 -62z m-65 4
c52 -46 70 -71 125 -168 32 -56 32 -56 -53 41 -33 39 -79 83 -102 99 -28 19
-40 35 -40 51 0 34 11 30 70 -23z m872 -171 c9 -19 9 -26 -5 -39 -9 -9 -19
-14 -22 -11 -8 8 -80 174 -90 208 -8 24 93 -112 117 -158z m-583 85 c23 -27
38 -53 35 -59 -4 -6 -12 -34 -18 -62 l-12 -51 -23 95 c-13 52 -25 104 -28 115
-6 23 -8 25 46 -38z m-72 31 c5 -7 20 -58 32 -113 13 -55 34 -127 47 -159 29
-71 30 -83 4 -36 -29 52 -59 134 -85 233 -22 80 -21 105 2 75z m-242 -4 c35
-14 178 -199 217 -280 21 -45 38 -87 38 -93 0 -29 -19 -2 -64 92 -40 85 -60
113 -120 171 -39 38 -70 74 -68 80 2 6 -5 16 -14 23 -19 14 -15 17 11 7z m765
-30 c0 -9 -16 -35 -36 -57 -34 -37 -66 -98 -135 -257 -33 -76 -36 -64 -10 40
28 108 52 158 110 228 53 63 71 75 71 46z m-231 -63 c0 -28 1 -53 2 -58 1 -4
1 -23 0 -42 -1 -33 -2 -34 -16 -15 -8 10 -15 32 -15 47 0 26 19 117 25 117 1
0 3 -22 4 -49z m-470 -39 c37 -37 72 -84 95 -130 l37 -73 -48 27 c-26 15 -58
33 -69 40 -26 15 -64 82 -93 159 -21 56 -21 56 -1 45 11 -6 47 -37 79 -68z
m-289 -2 c70 -170 251 -332 458 -411 13 -5 20 -13 17 -19 -8 -13 -91 19 -178
71 -133 79 -257 221 -313 361 -13 32 -24 61 -24 65 0 15 18 -15 40 -67z m1034
6 c16 -37 21 -54 11 -46 -12 10 -18 10 -30 0 -13 -11 -15 -4 -15 50 0 35 2 61
4 59 1 -2 15 -30 30 -63z m-385 -132 c6 -50 11 -99 11 -110 -1 -18 -1 -18 -11
-1 -12 21 -39 177 -39 222 l1 30 13 -25 c7 -14 18 -66 25 -116z m256 7 l-37
-36 34 69 c32 66 33 67 36 35 3 -26 -3 -39 -33 -68z m59 -20 c-15 -15 -16 -13
-10 24 4 22 10 54 14 70 6 26 7 22 10 -24 2 -41 -1 -58 -14 -70z m-1038 97
c27 -10 62 -53 51 -64 -1 -2 -26 10 -55 27 -72 41 -70 64 4 37z m654 -97 c-7
-11 -9 2 -9 44 l1 60 9 -44 c5 -26 5 -50 -1 -60z m-720 7 c10 -13 33 -40 50
-60 33 -39 178 -144 274 -198 31 -18 56 -39 56 -47 0 -20 -153 62 -251 135
-77 57 -153 139 -162 173 -7 26 11 24 33 -3z m309 4 c37 -18 52 -42 28 -42 -9
0 -17 3 -19 8 -1 4 -16 17 -32 30 -34 26 -25 28 23 4z m525 -80 c8 -35 10 -62
5 -62 -12 0 -16 12 -24 80 -8 70 0 62 19 -18z m-471 8 c42 -13 80 -33 108 -58
l43 -39 -51 7 c-52 6 -109 38 -153 85 -28 30 -28 30 53 5z m387 -1 c0 -6 -4
-7 -10 -4 -5 3 -10 11 -10 16 0 6 5 7 10 4 6 -3 10 -11 10 -16z m275 -10 c-4
-8 -20 -24 -36 -37 -24 -20 -28 -21 -22 -5 13 35 45 75 55 65 5 -5 6 -15 3
-23z m-455 -24 c0 -2 3 -12 6 -22 5 -13 -1 -10 -20 9 -31 32 -33 43 -6 28 11
-6 20 -12 20 -15z m461 -23 c-14 -26 -40 -46 -48 -38 -4 4 6 18 22 31 36 29
38 30 26 7z m-392 -94 c6 -18 -34 9 -85 57 l-49 46 65 -46 c36 -26 67 -51 69
-57z m-558 34 c22 -19 22 -19 -62 -25 -46 -3 -86 -3 -88 -1 -10 10 18 25 60
33 64 13 65 13 90 -7z m219 3 c17 -20 -7 -20 -34 0 -19 15 -19 15 1 15 11 0
26 -7 33 -15z m275 -35 c30 -31 23 -38 -19 -19 -14 7 -23 16 -19 22 3 5 -1 13
-8 18 -11 7 -11 9 2 9 8 0 28 -13 44 -30z m-99 -56 c77 -40 82 -44 51 -44 -36
0 -110 29 -187 74 l-45 26 48 -7 c27 -3 87 -25 133 -49z m-359 -1 c82 -46 93
-56 73 -68 -16 -10 -200 90 -200 109 0 18 52 1 127 -41z m138 -2 c94 -53 94
-75 1 -41 -54 21 -166 78 -166 86 0 2 18 4 40 4 29 0 62 -13 125 -49z m575 13
c61 -25 66 -43 29 -109 -28 -50 -34 -55 -65 -55 -40 0 -84 42 -84 80 0 26 22
66 50 87 20 16 22 16 70 -3z m-767 -80 c39 -7 48 -20 20 -31 -10 -4 -20 -10
-23 -14 -6 -9 -101 9 -114 21 -27 25 33 37 117 24z m536 -23 c18 -18 15 -19
-143 -30 -260 -19 -335 -38 -452 -116 -51 -34 -64 -40 -64 -26 0 28 50 68 130
104 132 60 246 83 418 86 78 1 95 -2 111 -18z m-180 -72 c-16 -6 -35 -6 -50 0
-20 8 -16 10 26 10 43 -1 46 -2 24 -10z m-119 -14 c0 -17 -4 -18 -49 -9 -40 8
-30 24 15 24 24 0 34 -5 34 -15z m136 -35 c-146 -85 -284 -216 -319 -301 -26
-65 -41 -75 -45 -32 -4 38 12 72 67 141 72 91 279 232 340 232 21 0 12 -8 -43
-40z m154 35 c0 -2 -12 -11 -27 -19 -16 -8 -37 -23 -48 -33 -53 -50 -194 -129
-216 -121 -14 5 116 96 196 137 79 39 95 46 95 36z m24 -24 c3 -5 -10 -29 -30
-53 -92 -109 -172 -346 -160 -475 6 -77 -8 -82 -29 -11 -31 104 -15 193 61
346 39 80 69 127 102 158 51 49 49 48 56 35z m56 -32 c0 -5 5 -7 11 -3 20 12
-40 -90 -76 -129 -38 -41 -65 -48 -65 -17 0 24 19 56 68 118 31 39 62 55 62
31z m25 -71 c-10 -18 -34 -55 -55 -83 -99 -133 -159 -270 -160 -362 0 -18 -5
-33 -11 -33 -16 0 -5 150 16 219 13 43 33 71 94 135 42 45 88 100 101 123 27
50 39 51 15 1z m-285 -43 c0 -18 -29 -34 -91 -50 -68 -18 -54 3 24 36 34 15
63 27 65 28 1 1 2 -6 2 -14z m280 -37 c-20 -88 -102 -315 -134 -375 -1 -1 -14
-5 -30 -9 l-28 -7 7 54 c10 73 28 122 77 204 35 59 108 165 114 165 1 0 -2
-15 -6 -32z m-610 -17 c0 -12 -26 -21 -60 -21 -29 0 -45 12 -33 24 10 9 93 7
93 -3z m292 -50 c-3 -20 -30 -56 -82 -110 -43 -45 -83 -81 -89 -81 -30 0 -2
44 81 127 51 51 93 93 94 93 0 0 -1 -13 -4 -29z m4588 -18 c0 -22 -16 -15 -28
12 -17 36 -15 41 8 20 11 -10 20 -24 20 -32z m-4369 -280 c-12 -20 -14 -14 -5
12 4 9 9 14 11 11 3 -2 0 -13 -6 -23z m-11 -51 c0 -5 -5 -34 -11 -65 -11 -53
-14 -57 -40 -57 -32 0 -39 -16 -11 -24 18 -5 -30 -1 -112 10 -39 5 -48 4 -44
-7 3 -8 21 -16 42 -19 20 -3 36 -9 35 -14 0 -5 5 -13 13 -18 8 -5 -9 -6 -41
-2 -47 6 -53 5 -48 -9 4 -10 -2 -17 -16 -22 -20 -6 -19 -7 13 -20 40 -16 36
-17 -42 -15 -36 1 -58 -3 -58 -9 0 -7 -23 -11 -55 -11 -30 0 -55 -4 -55 -10 0
-5 15 -10 33 -10 34 0 60 -12 57 -26 -1 -5 9 -12 22 -16 16 -4 8 -6 -24 -7
-54 -1 -65 -18 -15 -24 22 -3 15 -4 -20 -5 -40 -2 -53 -6 -53 -17 0 -10 10
-15 33 -15 30 -1 31 -1 13 -15 -12 -9 -42 -15 -73 -15 -29 0 -53 -4 -53 -10 0
-5 -20 -10 -44 -10 -36 0 -45 4 -49 20 -4 17 -11 20 -34 15 -81 -18 -78 -18
-62 1 37 45 155 114 245 144 57 19 93 37 91 43 -2 7 -30 14 -63 17 l-59 5 85
43 c67 33 106 45 184 57 54 8 102 17 105 21 10 10 -29 32 -72 39 -32 6 -37 9
-23 17 9 5 26 10 39 12 12 1 29 6 37 9 44 19 130 32 130 19z m-86 -372 c-13
-63 -23 -124 -22 -135 6 -43 24 -12 39 67 l17 83 1 -110 c0 -61 -3 -115 -8
-120 -5 -6 -16 -34 -26 -62 -20 -63 -79 -130 -152 -172 l-51 -30 1 61 c2 72
-13 85 -42 36 -39 -65 -77 -111 -121 -145 -40 -31 -45 -32 -51 -16 -4 10 -8
34 -8 54 -2 62 -17 64 -88 8 -34 -28 -63 -48 -63 -46 0 3 4 16 9 30 5 13 6 30
1 38 -8 11 -18 9 -62 -13 -99 -50 -129 -52 -247 -16 l-104 32 54 17 c67 19
108 41 178 90 41 29 63 39 90 38 23 -1 28 -3 14 -6 -27 -5 -30 -20 -6 -26 23
-5 5 -13 -49 -22 -41 -6 -52 -24 -15 -26 13 -1 7 -5 -17 -10 -38 -9 -65 -32
-66 -56 0 -18 20 -16 80 9 39 16 55 19 58 10 6 -19 21 -14 33 11 5 12 23 30
39 39 l29 16 -11 -24 c-14 -31 -1 -45 18 -19 8 11 21 19 28 17 7 -1 21 17 32
40 31 68 86 109 58 43 -7 -19 -14 -42 -14 -51 0 -29 25 -8 41 36 10 26 18 38
21 29 9 -23 26 1 39 56 15 58 33 86 23 35 -7 -31 -6 -34 8 -22 9 7 19 23 22
36 4 17 11 23 24 19 14 -3 22 7 36 46 10 27 24 55 32 62 18 15 18 12 -5 -79
-30 -117 -37 -176 -20 -170 8 3 21 46 33 109 11 57 22 94 24 82 5 -36 20 -27
32 20 19 73 21 76 34 71 8 -3 19 8 28 28 8 18 13 27 11 21 -1 -7 3 -13 10 -13
7 0 25 28 40 62 15 34 29 60 31 57 2 -2 -7 -56 -20 -119z m-41 55 c-3 -9 -8
-14 -10 -11 -3 3 -2 9 2 15 9 16 15 13 8 -4z m-413 -180 c0 -8 14 -15 33 -17
28 -4 25 -5 -20 -12 -58 -9 -72 -26 -22 -26 17 0 28 -4 24 -10 -3 -5 -28 -10
-56 -10 -38 0 -49 -4 -49 -16 0 -12 7 -14 32 -8 28 6 31 5 20 -8 -7 -9 -34
-18 -61 -20 -27 -3 -57 -12 -66 -21 -24 -24 -44 -22 -37 5 5 20 3 21 -38 14
l-42 -7 57 52 c109 100 116 104 173 101 35 -3 52 -8 52 -17z m100 -41 c-25
-25 -63 -59 -85 -76 -22 -16 -4 4 40 46 89 84 113 100 45 30z m91 19 c-8 -15
-10 -15 -11 -2 0 17 10 32 18 25 2 -3 -1 -13 -7 -23z m5300 -110 c-27 -32 -48
-60 -45 -62 2 -3 30 21 62 52 32 31 62 57 67 57 5 0 -15 -25 -45 -55 -29 -30
-50 -58 -46 -62 4 -5 32 19 60 51 35 39 57 56 65 51 9 -5 -4 -25 -45 -66 -32
-32 -55 -62 -51 -66 4 -4 33 19 64 50 68 69 94 76 32 10 -63 -68 -103 -122
-95 -130 3 -4 14 4 23 18 30 43 135 149 144 143 21 -12 -222 -288 -305 -347
-22 -15 -27 -16 -17 -4 26 33 -5 16 -44 -23 -21 -22 -43 -40 -49 -40 -5 0 3
13 19 30 16 16 26 32 23 35 -3 3 -28 -19 -56 -49 -58 -62 -68 -64 -21 -4 32
40 36 63 5 29 -10 -11 -24 -17 -31 -15 -8 3 -29 -17 -52 -50 -21 -30 -44 -57
-51 -60 -15 -7 -10 4 26 52 14 18 22 35 19 38 -3 4 -21 -15 -39 -41 -50 -72
-66 -91 -72 -84 -3 3 17 36 44 72 28 37 46 67 40 67 -5 0 -38 -37 -71 -82 -34
-46 -66 -85 -72 -87 -6 -2 5 18 24 45 20 27 51 72 69 99 19 28 43 60 54 73 11
12 16 22 11 22 -4 0 0 9 10 20 24 26 11 26 -27 -1 -27 -20 -29 -20 -18 -2 7
10 37 36 67 57 61 43 65 60 6 26 l-38 -22 26 24 c14 12 39 33 55 44 16 12 26
25 23 28 -3 3 -18 -3 -33 -15 -15 -12 -29 -19 -32 -16 -3 3 20 24 50 46 55 41
71 59 41 47 -27 -10 -16 2 23 25 20 12 52 38 70 58 20 21 27 26 18 11 -29 -46
-16 -45 32 3 58 57 82 63 27 7 -21 -22 -35 -43 -31 -47 3 -4 30 16 59 45 70
70 91 66 28 -5z m-5521 -17 c0 -2 -8 -10 -17 -17 -16 -13 -17 -12 -4 4 13 16
21 21 21 13z m5234 -8 c-4 -7 -36 -54 -71 -104 -35 -51 -63 -95 -63 -98 0 -17
25 12 91 109 51 74 78 105 92 105 16 0 12 -9 -26 -49 -25 -27 -60 -77 -77
-111 -18 -35 -53 -98 -79 -139 -26 -42 -65 -107 -85 -144 -21 -37 -40 -66 -42
-65 -2 2 3 26 12 53 8 28 25 102 38 165 20 100 30 125 70 187 25 39 53 74 62
77 15 6 14 3 -2 -21 -52 -81 -77 -124 -71 -129 3 -3 29 31 58 76 43 68 68 93
97 99 2 1 0 -5 -4 -11z m556 -3 c0 -8 -62 -37 -67 -31 -3 3 10 12 28 20 42 18
39 17 39 11z m70 2 c0 -2 -12 -14 -27 -28 l-28 -24 24 28 c23 25 31 32 31 24z
m40 -12 c0 -2 -34 -30 -75 -61 -63 -47 -89 -74 -72 -74 2 0 39 27 83 59 43 33
82 57 86 55 17 -11 7 -30 -24 -48 -17 -11 -66 -52 -108 -93 -42 -40 -80 -70
-84 -66 -3 4 -23 -9 -44 -28 -32 -30 -33 -30 -9 -3 15 16 27 34 27 38 0 9 -33
0 -74 -20 -36 -17 -35 -18 -29 5 2 10 22 28 44 40 21 12 39 27 39 33 0 5 -21
-2 -47 -17 -47 -26 -48 -26 -19 -2 16 14 50 35 77 48 27 12 49 26 49 31 0 11
-7 10 -40 -7 -52 -27 -32 -6 25 26 30 17 55 37 55 44 0 7 7 16 16 19 8 3 12 2
9 -4 -3 -6 -1 -10 5 -10 8 0 8 -6 0 -20 -16 -30 -2 -24 46 20 39 35 64 49 64
35z m-816 -65 c-15 -22 -28 -40 -31 -40 -9 0 11 56 25 68 30 23 32 12 6 -28z
m186 -4 c0 -2 -8 -10 -17 -17 -16 -13 -17 -12 -4 4 13 16 21 21 21 13z m731
-46 c-28 -22 -51 -43 -51 -45 0 -12 19 -2 69 35 29 22 58 40 65 40 6 0 -5 -12
-24 -27 -19 -15 -50 -42 -67 -59 -18 -18 -33 -29 -33 -24 0 4 -13 7 -30 6 -20
-1 -44 -15 -77 -46 l-48 -45 39 42 c56 60 40 63 -19 3 -27 -28 -53 -50 -58
-50 -5 0 13 20 40 45 37 34 45 47 34 54 -10 6 -4 12 23 21 20 6 36 16 36 21 0
6 -9 7 -20 4 -41 -13 -18 4 26 19 39 13 44 13 34 1 -21 -25 4 -17 46 15 59 45
73 36 15 -10z m363 9 c-3 -6 -25 -19 -48 -30 -22 -10 -52 -26 -66 -35 l-25
-16 23 20 c12 11 22 26 22 33 0 8 -6 7 -18 -4 -10 -10 -21 -14 -24 -11 -4 3
-17 0 -30 -7 -12 -7 -27 -12 -31 -11 -4 1 -29 -12 -55 -29 -26 -17 -37 -22
-24 -11 12 11 22 30 22 41 0 14 6 21 20 21 11 0 20 6 20 13 0 24 43 36 133 36
61 1 86 -2 81 -10z m-239 -109 c-10 -11 -23 -20 -29 -20 -6 0 0 9 14 20 32 25
38 25 15 0z m-65 -20 c0 -5 -5 -10 -11 -10 -5 0 -7 5 -4 10 3 6 8 10 11 10 2
0 4 -4 4 -10z m-280 -3 c0 -2 -12 -14 -27 -28 l-28 -24 24 28 c23 25 31 32 31
24z m486 -12 c9 -8 11 -15 5 -15 -6 0 -11 -9 -11 -19 0 -21 -27 -36 -32 -19
-3 8 -11 7 -27 -2 -13 -6 -21 -7 -17 -2 3 6 1 12 -5 14 -6 2 6 16 28 31 44 32
40 31 59 12z m-101 -4 c-15 -25 -130 -54 -285 -72 -280 -33 -411 -57 -505 -89
-104 -36 -253 -113 -378 -194 -48 -31 -90 -56 -93 -56 -8 0 18 44 35 58 9 7
87 48 173 92 230 115 390 165 632 196 218 28 356 50 388 64 30 12 40 12 33 1z
m-625 -34 c0 -2 -12 -14 -27 -28 l-28 -24 24 28 c23 25 31 32 31 24z m635 -57
c-3 -5 -12 -10 -18 -10 -7 0 -6 4 3 10 19 12 23 12 15 0z m-935 -27 c-1 -5
-15 -24 -32 -43 -32 -36 -29 -25 6 23 20 28 26 32 26 20z m898 -14 c2 -5 22
-10 45 -10 30 -2 34 -3 15 -6 -26 -4 -41 -23 -18 -23 15 0 12 -30 -2 -31 -74
-4 -94 -3 -100 6 -4 5 -33 10 -64 9 -32 0 -52 2 -46 4 19 6 14 22 -5 20 -34
-2 -54 2 -49 11 3 5 15 7 26 4 11 -3 20 0 20 6 0 5 7 8 15 5 8 -3 22 2 31 11
14 14 28 16 73 10 31 -4 58 -11 59 -16z m-238 -25 c0 -2 -13 -4 -30 -4 -16 0
-30 4 -30 8 0 5 14 7 30 4 17 -2 30 -6 30 -8z m-94 -24 c173 -45 228 -63 208
-71 -18 -7 -17 -8 4 -15 12 -3 22 -10 22 -15 0 -5 7 -9 16 -9 11 0 14 -5 10
-16 -3 -9 -6 -22 -6 -30 0 -8 -9 -14 -21 -14 -12 0 -18 4 -13 11 5 9 -4 10
-32 6 -21 -4 -33 -4 -26 -1 23 11 12 20 -25 21 -21 1 -39 6 -41 12 -3 8 -17 9
-39 5 -28 -5 -34 -4 -28 6 6 10 -3 12 -46 7 -45 -5 -50 -4 -29 6 23 10 19 12
-40 17 -36 4 -53 7 -37 8 15 1 27 7 27 13 0 8 -16 10 -50 5 -32 -4 -50 -3 -50
4 0 5 9 10 21 10 11 0 17 5 14 10 -3 6 -16 8 -28 6 -66 -14 -101 -17 -92 -8 6
5 44 15 85 22 41 7 82 16 90 21 20 11 16 12 106 -11z m-782 -40 c-15 -22 -29
-40 -31 -40 -5 0 3 15 29 53 30 43 31 32 2 -13z m374 13 c-10 -2 -28 -2 -40 0
-13 2 -5 4 17 4 22 1 32 -1 23 -4z m242 -77 c205 -73 236 -86 208 -86 -16 0
-28 -4 -28 -10 0 -6 29 -10 68 -10 37 0 74 -5 82 -10 10 -7 0 -8 -32 -4 -33 5
-48 3 -48 -5 0 -6 17 -12 38 -12 35 -1 36 -2 8 -8 -17 -3 -29 -10 -27 -16 6
-24 36 -45 65 -47 25 -1 22 -2 -14 -8 -43 -6 -44 -7 -20 -17 14 -7 19 -12 12
-12 -6 -1 -11 -6 -10 -12 2 -6 -3 -14 -9 -16 -7 -3 -13 0 -13 7 0 7 -13 9 -37
6 -21 -3 -30 -3 -20 0 9 3 17 10 17 15 0 6 -8 8 -17 6 -62 -17 -124 -28 -135
-24 -7 3 -3 6 9 6 31 1 54 12 48 22 -3 4 -13 5 -21 2 -9 -3 -19 0 -24 7 -6 9
-19 9 -64 0 -32 -6 -60 -10 -62 -7 -3 2 9 7 26 10 16 4 30 11 30 17 0 7 -8 9
-21 5 -16 -5 -19 -4 -14 5 6 10 -7 12 -56 8 -35 -3 -53 -3 -39 -1 34 6 50 23
21 23 -12 0 -19 4 -16 10 4 6 -24 11 -77 11 -46 1 -72 3 -58 6 53 8 71 14 66
22 -3 4 -27 4 -53 0 -70 -11 -102 -11 -83 1 8 5 25 10 38 10 12 0 22 5 22 11
0 7 -12 9 -32 5 -99 -17 -121 -19 -114 -8 4 7 18 12 31 12 13 0 27 5 30 10 9
14 -13 13 -91 -5 -36 -9 -69 -14 -71 -11 -3 3 11 8 30 11 25 5 34 11 30 21 -4
10 3 14 21 14 14 0 26 3 26 8 0 6 14 14 75 38 17 6 15 8 -15 14 -32 7 -31 7
17 9 28 0 55 6 59 12 12 20 142 1 244 -35z m177 -22 c-3 -3 -12 -4 -19 -1 -8
3 -5 6 6 6 11 1 17 -2 13 -5z m-574 -11 c-7 -2 -21 -2 -30 0 -10 3 -4 5 12 5
17 0 24 -2 18 -5z m-66 -9 c-3 -3 -12 -4 -19 -1 -8 3 -5 6 6 6 11 1 17 -2 13
-5z m-42 -30 c-87 -16 -98 -17 -90 -4 4 6 10 8 13 6 4 -2 23 -1 42 4 19 4 51
8 70 8 23 0 10 -5 -35 -14z m812 10 c-3 -3 -12 -4 -19 -1 -8 3 -5 6 6 6 11 1
17 -2 13 -5z m-652 -83 c39 -11 131 -45 205 -76 74 -31 160 -62 190 -70 l55
-13 -43 -1 c-42 -1 -53 -21 -11 -21 11 0 18 -4 15 -9 -6 -10 41 -21 90 -21 19
0 34 -5 34 -11 0 -8 -15 -10 -48 -5 -41 5 -52 3 -66 -13 -17 -19 -17 -20 21
-26 56 -10 62 -13 23 -14 -19 -1 -46 -4 -59 -8 -18 -5 -22 -3 -16 7 6 10 1 12
-24 7 -23 -5 -30 -3 -25 5 8 12 -63 6 -101 -8 -13 -5 -16 -4 -11 4 4 7 16 12
27 12 10 0 19 4 19 9 0 11 -74 23 -103 16 -12 -3 -31 1 -42 9 -19 15 -19 15
13 16 17 0 32 5 32 11 0 7 -19 8 -56 3 -41 -5 -55 -4 -50 5 4 6 21 11 37 11
18 0 28 4 24 10 -4 6 -31 8 -63 6 -31 -3 -46 -3 -32 0 51 11 44 24 -15 26 -40
1 -48 3 -25 5 65 8 60 26 -6 20 -34 -3 -68 -1 -75 4 -10 6 -4 9 19 9 17 0 32
5 32 10 0 7 -18 8 -49 4 -29 -4 -56 -2 -67 5 -17 9 -16 10 9 11 15 0 27 5 27
10 0 12 -4 12 -52 1 -42 -10 -53 3 -13 13 14 4 25 10 25 15 0 5 -22 2 -49 -6
-48 -16 -81 -13 -81 7 0 5 16 10 35 10 19 0 35 5 35 10 0 6 9 10 20 10 11 0
20 5 20 10 0 17 101 11 175 -9z m198 -28 c-7 -2 -19 -2 -25 0 -7 3 -2 5 12 5
14 0 19 -2 13 -5z m-415 -62 c76 -25 184 -76 218 -103 6 -4 58 -33 115 -63 57
-30 101 -55 98 -55 -3 0 -29 7 -58 16 -54 16 -78 14 -44 -4 10 -5 59 -20 108
-33 50 -13 82 -25 73 -27 -10 -2 -51 6 -93 17 -86 24 -85 24 -85 13 0 -9 27
-18 119 -42 23 -6 41 -13 39 -16 -2 -2 -37 5 -76 16 -79 22 -96 24 -88 11 3
-4 34 -16 68 -26 35 -10 57 -20 51 -22 -7 -3 -37 3 -67 11 -30 9 -57 16 -60
16 -12 0 -6 -20 7 -20 6 -1 26 -7 42 -15 l30 -15 -35 4 c-23 2 -39 -2 -47 -13
-12 -15 -13 -15 -7 1 5 15 2 15 -33 3 -21 -8 -47 -14 -58 -14 -14 0 -10 4 12
12 45 17 54 31 15 24 -23 -5 -31 -3 -26 5 7 10 -39 6 -84 -9 -15 -4 -15 -3 -2
6 8 6 23 11 32 11 9 0 20 5 24 11 6 11 -30 8 -84 -7 -9 -2 -3 2 13 10 l30 15
-35 2 c-24 1 -28 3 -12 6 12 2 22 9 22 14 0 8 -21 6 -72 -7 -9 -3 -19 0 -23 6
-4 6 6 10 24 10 16 0 33 5 36 10 5 8 -11 9 -47 5 -39 -5 -49 -4 -38 4 8 6 27
11 43 11 15 0 27 4 27 9 0 5 -26 8 -57 5 l-58 -4 45 14 45 14 -40 1 c-23 1
-46 -4 -51 -9 -8 -8 -15 -6 -24 5 -11 13 -8 15 19 16 43 2 48 3 57 12 4 4 -10
7 -32 8 -32 0 -35 2 -19 10 15 7 7 8 -28 5 -54 -4 -73 9 -27 19 49 11 34 23
-16 14 -28 -5 -53 -5 -63 1 -13 8 -12 9 9 10 14 0 32 5 40 11 11 7 -1 9 -44 4
-41 -5 -56 -3 -52 4 4 6 20 11 37 11 16 0 29 5 29 11 0 5 -8 9 -17 8 -38 -3
-63 1 -63 12 0 8 12 10 35 6 19 -3 35 -2 35 3 0 5 -15 11 -32 13 -23 3 -16 4
20 5 29 1 52 7 52 13 0 5 4 8 9 4 5 -3 12 -1 16 5 8 13 3 14 103 -19z m525 22
c-7 -2 -19 -2 -25 0 -7 3 -2 5 12 5 14 0 19 -2 13 -5z m114 -29 c-3 -3 -12 -4
-19 -1 -8 3 -5 6 6 6 11 1 17 -2 13 -5z m120 -30 c-3 -3 -12 -4 -19 -1 -8 3
-5 6 6 6 11 1 17 -2 13 -5z m13 -62 c0 -5 -26 -7 -57 -5 -84 6 -88 11 -10 12
37 1 67 -3 67 -7z m-1015 -76 c-3 -11 -24 -37 -47 -56 l-41 -35 44 85 c39 76
44 82 47 56 2 -15 1 -38 -3 -50z m45 0 c0 -35 -5 -58 -15 -66 -8 -7 -15 -22
-15 -33 0 -11 -2 -18 -5 -16 -8 9 18 178 27 173 4 -3 8 -29 8 -58z m915 14
c13 -6 5 -7 -25 -3 -25 3 -47 7 -49 9 -9 8 55 2 74 -6z m-799 -46 c24 -19 44
-39 44 -43 0 -5 -27 -14 -61 -20 -34 -7 -68 -15 -76 -18 -12 -5 -13 1 -7 33 5
33 37 84 52 84 3 0 25 -16 48 -36z m-247 -6 c-7 -13 -28 -59 -46 -103 -31 -73
-33 -76 -29 -38 2 25 19 66 41 102 37 59 58 83 34 39z m858 16 c-3 -3 -12 -4
-19 -1 -8 3 -5 6 6 6 11 1 17 -2 13 -5z m60 -10 c-3 -3 -12 -4 -19 -1 -8 3 -5
6 6 6 11 1 17 -2 13 -5z m70 -10 c-3 -3 -12 -4 -19 -1 -8 3 -5 6 6 6 11 1 17
-2 13 -5z m-957 -78 c0 -16 -14 -38 -37 -60 -21 -19 -39 -33 -41 -31 -9 9 60
115 75 115 2 0 3 -11 3 -24z m309 10 c9 -11 -3 -18 -71 -36 -92 -24 -235 -77
-240 -88 -2 -4 -23 -23 -48 -42 l-45 -35 23 32 c13 18 21 37 18 41 -7 12 30
45 72 66 18 9 83 28 144 41 61 14 114 27 116 30 9 9 19 6 31 -9z m71 -54 l23
-18 -50 -25 c-45 -22 -57 -24 -158 -19 l-110 5 75 23 c41 13 93 30 115 37 56
19 79 18 105 -3z m117 2 c-3 -3 -12 -4 -19 -1 -8 3 -5 6 6 6 11 1 17 -2 13 -5z
m-33 -40 c19 -7 21 -20 4 -27 -19 -7 -60 11 -53 23 7 11 26 13 49 4z m-89 -69
c91 -24 171 -63 158 -76 -8 -8 -31 -4 -82 16 -86 33 -165 45 -300 45 l-104 0
19 21 c18 20 26 21 134 16 63 -3 142 -13 175 -22z m-245 -45 c0 -5 7 -7 15 -4
8 4 15 1 15 -5 0 -7 17 -9 47 -6 25 3 44 3 42 1 -9 -9 -268 -66 -295 -65 -19
0 -24 3 -14 7 8 4 16 15 17 25 1 15 -4 18 -25 13 -22 -4 -20 -2 8 11 62 29
190 44 190 23z m297 -31 l48 -22 -60 -19 c-58 -19 -62 -19 -140 -2 l-80 18 50
13 c28 7 61 17 75 22 39 14 55 12 107 -10z m-627 -4 c30 -16 60 -61 60 -90 0
-30 -29 -72 -59 -85 -50 -20 -107 -5 -136 38 -28 40 -30 35 44 115 39 41 49
44 91 22z m805 -26 c0 -19 -67 -54 -157 -80 -71 -21 -81 -22 -134 -9 l-57 14
100 23 c55 12 129 33 164 47 70 26 84 27 84 5z m-416 -15 c35 -7 42 -24 10
-24 -11 0 -18 -4 -15 -9 3 -5 -13 -11 -37 -13 -76 -8 -122 17 -75 40 27 12 72
15 117 6z m-56 -80 c116 -29 257 -82 321 -119 45 -26 154 -134 175 -173 10
-18 9 -23 -4 -28 -9 -4 -35 10 -68 38 -151 128 -258 187 -451 249 -97 32 -125
44 -111 50 29 11 27 11 138 -17z m424 -76 c64 -37 95 -69 80 -85 -6 -5 -167
68 -207 94 l-25 17 25 7 c43 12 52 10 127 -33z m-461 -48 c99 -58 393 -279
429 -322 25 -30 33 -58 16 -58 -5 0 -62 49 -126 110 -116 109 -218 188 -347
269 -63 40 -77 51 -62 51 3 0 43 -23 90 -50z m-588 -48 c-110 -144 -171 -318
-172 -494 0 -60 -3 -108 -7 -108 -12 0 -41 84 -46 136 -10 91 12 178 79 314
47 96 74 137 115 177 32 32 59 50 68 47 11 -4 2 -22 -37 -72z m100 -13 c-39
-73 -105 -148 -133 -152 -11 -1 -27 -7 -35 -12 -10 -5 -8 -1 3 13 11 11 16 25
13 30 -7 12 62 118 97 151 17 15 33 22 47 18 11 -3 23 -1 26 4 3 5 7 9 10 9 3
0 -10 -28 -28 -61z m303 -37 c8 -38 14 -126 13 -202 0 -121 -3 -143 -28 -215
-32 -94 -91 -195 -113 -195 -12 0 -11 6 7 33 44 66 63 124 85 261 23 148 22
247 -5 345 -6 23 -9 46 -6 49 3 3 6 0 6 -6 0 -7 5 -12 10 -12 7 0 7 7 0 23
-10 20 -10 21 3 4 8 -10 21 -48 28 -85z m220 -44 c22 -32 42 -65 46 -75 6 -15
3 -14 -23 4 -16 11 -34 22 -41 24 -6 2 -41 40 -77 83 -62 74 -74 102 -41 89 9
-3 15 1 15 8 1 18 69 -58 121 -133z m-276 47 c23 -100 13 -118 -15 -27 -19 63
-22 102 -6 102 3 0 12 -34 21 -75z m95 50 c13 -14 21 -25 18 -25 -2 0 -15 11
-28 25 -13 14 -21 25 -18 25 2 0 15 -11 28 -25z m-167 -167 c10 -31 26 -77 37
-102 12 -28 15 -48 9 -52 -5 -3 -7 -14 -4 -25 4 -10 2 -19 -3 -19 -14 0 -68
134 -82 205 -12 58 -8 144 7 168 5 7 10 -15 14 -53 3 -36 13 -91 22 -122z m62
18 c6 -13 5 -17 -2 -13 -6 4 -13 1 -16 -5 -7 -22 -38 50 -44 102 -10 88 6 93
31 10 13 -41 27 -84 31 -94z m-158 132 c-3 -8 -6 -5 -6 6 -1 11 2 17 5 13 3
-3 4 -12 1 -19z m30 -10 c-3 -8 -6 -5 -6 6 -1 11 2 17 5 13 3 -3 4 -12 1 -19z
m234 -5 c13 -16 12 -17 -3 -4 -17 13 -22 21 -14 21 2 0 10 -8 17 -17z m-260
-103 c-11 -36 -20 -57 -20 -47 -1 25 33 145 36 127 2 -8 -6 -44 -16 -80z m363
21 c81 -88 222 -216 279 -253 62 -41 66 -89 4 -57 -49 26 -248 193 -299 251
-75 86 -93 114 -76 121 23 10 33 3 92 -62z m-721 32 c-7 -2 -13 -12 -13 -22 0
-19 -45 -44 -100 -56 -31 -6 -27 -2 35 39 39 25 75 45 80 45 6 0 4 -3 -2 -6z
m-53 -134 c-16 -53 -185 -230 -204 -212 -17 17 2 46 96 140 57 57 106 103 110
103 3 0 3 -14 -2 -31z m-297 -102 c-17 -53 -36 -57 -41 -9 -3 25 2 33 25 45
15 9 29 14 30 13 1 -1 -5 -23 -14 -49z m1042 -7 c14 -27 23 -50 21 -50 -12 0
-67 81 -61 90 10 16 13 13 40 -40z m139 -189 c40 -31 56 -50 56 -67 0 -13 -5
-24 -10 -24 -6 0 -66 52 -135 116 -114 106 -125 119 -125 152 l0 35 79 -85
c44 -46 104 -104 135 -127z m76 114 c9 6 15 -10 25 -67 12 -75 -35 -19 -77 91
l-9 25 27 -27 c14 -15 30 -24 34 -22z m-250 -63 c11 -29 17 -52 12 -51 -4 0
-22 18 -40 39 -26 31 -31 44 -26 65 6 23 9 25 21 13 7 -8 22 -38 33 -66z m30
-127 l0 -30 -40 45 c-22 25 -38 52 -37 61 1 9 -5 24 -12 35 -8 10 8 -3 37 -31
40 -38 52 -56 52 -80z m30 85 c2 32 18 -28 21 -79 3 -34 0 -56 -7 -58 -15 -5
-22 14 -29 89 -5 46 -4 59 4 48 10 -13 11 -13 11 0z"/>
<path d="M2790 4201 c0 -5 7 -11 15 -15 12 -4 15 -23 15 -81 0 -58 -3 -77 -15
-81 -27 -11 -16 -24 20 -24 38 0 43 7 19 24 -11 9 -14 27 -12 75 l3 64 34 -82
c19 -45 39 -80 44 -78 5 1 23 36 41 76 l31 73 3 -63 c2 -51 0 -66 -14 -76 -15
-11 -10 -13 37 -13 41 1 50 3 37 11 -25 14 -27 179 -3 179 8 0 15 5 15 10 0 6
-13 10 -30 10 -34 0 -45 -15 -81 -104 l-24 -58 -37 81 c-34 76 -39 81 -68 81
-16 0 -30 -4 -30 -9z"/>
<path d="M3130 4206 c0 -2 18 -31 40 -64 44 -65 52 -114 23 -131 -14 -8 -7
-10 32 -11 38 0 46 3 37 12 -21 21 -13 76 19 128 17 27 35 50 40 50 5 0 9 5 9
10 0 6 -14 10 -31 10 -26 0 -29 -3 -24 -20 4 -13 -2 -34 -16 -56 l-22 -35 -24
41 c-20 33 -22 44 -13 55 11 13 6 15 -29 15 -22 0 -41 -2 -41 -4z"/>
<path d="M3540 4200 c0 -5 5 -10 10 -10 15 0 13 -163 -2 -178 -9 -9 7 -12 75
-12 l87 0 0 31 0 32 -25 -27 c-18 -20 -33 -26 -53 -24 -27 3 -27 3 -30 91 -2
73 0 87 13 87 8 0 15 5 15 10 0 6 -20 10 -45 10 -25 0 -45 -4 -45 -10z"/>
<path d="M3793 4196 c14 -11 17 -29 17 -94 0 -67 -3 -83 -17 -91 -14 -8 -7
-10 32 -10 39 0 46 2 33 10 -25 14 -27 179 -3 179 8 0 15 5 15 10 0 6 -21 10
-47 10 -42 -1 -46 -2 -30 -14z"/>
<path d="M3945 4190 c-9 -28 2 -38 18 -17 6 9 23 18 37 19 25 3 25 2 28 -82 2
-71 0 -87 -14 -97 -15 -11 -10 -13 37 -12 43 0 49 2 31 9 -22 9 -23 14 -20 97
3 87 3 88 28 85 14 -2 30 -10 36 -18 16 -21 26 -17 22 9 -3 21 -8 22 -100 25
-91 3 -97 1 -103 -18z"/>
<path d="M4220 4183 c1 -24 2 -25 11 -10 6 10 22 17 39 17 l30 0 0 -85 c0 -69
-3 -86 -17 -94 -14 -8 -5 -10 37 -10 42 0 51 2 38 10 -15 8 -18 25 -18 94 0
83 1 85 24 85 13 0 30 -10 39 -22 16 -23 16 -23 16 10 l1 32 -100 0 -100 0 0
-27z"/>
<path d="M4490 4200 c0 -5 7 -10 15 -10 24 0 22 -158 -2 -176 -15 -11 -5 -13
75 -14 l92 0 0 38 -1 37 -20 -27 c-16 -21 -29 -28 -55 -28 l-34 0 0 85 c0 69
3 85 15 85 8 0 15 5 15 10 0 6 -22 10 -50 10 -27 0 -50 -4 -50 -10z"/>
<path d="M4740 4200 c0 -5 5 -10 10 -10 6 0 10 -34 10 -81 0 -66 -3 -84 -17
-95 -15 -11 -5 -13 75 -14 l92 0 0 38 -1 37 -20 -27 c-16 -21 -29 -28 -55 -28
-33 0 -34 1 -34 40 0 33 3 40 20 40 11 0 20 -7 20 -15 0 -8 5 -15 10 -15 6 0
10 18 10 40 0 22 -4 40 -10 40 -5 0 -10 -7 -10 -15 0 -8 -9 -15 -20 -15 -16 0
-20 7 -20 35 0 32 3 35 29 35 18 0 34 -8 44 -22 16 -23 16 -23 16 10 l1 32
-75 0 c-43 0 -75 -4 -75 -10z"/>
<path d="M2510 4070 c-14 -4 -44 -8 -67 -9 -36 -1 -43 -4 -43 -21 0 -14 7 -20
24 -20 50 0 51 -9 51 -352 0 -348 2 -338 -58 -338 -22 0 -28 -4 -25 -17 3 -16
17 -18 128 -18 111 0 125 2 128 18 3 13 -3 17 -25 17 -16 0 -34 5 -41 12 -9 9
-12 106 -12 375 0 400 5 374 -60 353z"/>
<path d="M1710 4050 c0 -17 7 -20 39 -20 72 0 71 7 71 -346 0 -301 -1 -315
-20 -334 -13 -13 -33 -20 -60 -20 -33 0 -40 -3 -40 -20 0 -19 7 -20 185 -20
178 0 185 1 185 20 0 17 -7 20 -43 20 -72 0 -77 12 -84 194 l-6 156 70 0 c82
0 101 -14 110 -79 4 -32 10 -41 25 -41 17 0 18 8 16 138 -3 113 -6 137 -18
137 -9 0 -17 -14 -21 -39 -9 -58 -37 -76 -115 -76 l-64 0 0 155 0 155 115 0
c84 0 124 -4 145 -15 30 -15 61 -66 74 -117 3 -16 13 -28 21 -28 12 0 15 18
15 100 l0 100 -300 0 c-293 0 -300 0 -300 -20z"/>
<path d="M4925 3775 c-22 -8 -54 -30 -71 -50 l-31 -35 -6 41 c-3 22 -8 43 -11
46 -3 3 -37 -2 -76 -12 -75 -18 -91 -39 -40 -50 17 -4 35 -16 41 -26 6 -13 9
-80 7 -180 -3 -171 -6 -179 -55 -179 -16 0 -23 -6 -23 -20 0 -19 7 -20 125
-20 118 0 125 1 125 20 0 15 -7 20 -28 20 -47 0 -52 13 -52 152 0 141 10 180
56 223 35 33 60 32 78 -4 18 -34 41 -45 67 -31 26 15 25 61 -3 87 -33 30 -57
34 -103 18z"/>
<path d="M2880 3764 c-80 -35 -139 -120 -147 -215 -14 -154 91 -269 248 -269
36 0 82 7 102 15 116 48 174 183 136 319 -13 48 -82 123 -134 147 -50 23 -156
24 -205 3z m169 -32 c58 -29 76 -78 76 -207 0 -86 -4 -117 -18 -143 -54 -100
-204 -95 -250 7 -22 50 -29 173 -14 243 9 42 49 95 81 108 35 14 89 11 125 -8z"/>
<path d="M4275 3766 c-48 -21 -89 -60 -115 -112 -21 -40 -25 -64 -25 -130 0
-72 3 -86 30 -129 17 -27 50 -63 73 -80 37 -25 54 -30 115 -33 61 -3 79 0 117
20 50 27 97 85 80 102 -6 6 -22 -4 -47 -31 -71 -76 -180 -79 -229 -5 -26 38
-44 113 -44 182 l0 50 165 0 c129 0 165 3 165 13 0 7 -12 37 -26 65 -35 71
-88 102 -170 102 -32 -1 -72 -7 -89 -14z m146 -45 c19 -20 29 -40 29 -60 l0
-31 -105 0 c-118 0 -124 4 -85 68 36 60 113 70 161 23z"/>
<path d="M3290 3745 c0 -8 9 -15 20 -15 25 0 42 -33 123 -245 36 -94 69 -178
72 -187 4 -10 15 -18 24 -18 12 0 33 45 80 170 35 94 67 172 70 174 4 3 35
-74 71 -170 47 -127 69 -174 81 -174 12 0 33 41 74 148 112 287 113 289 146
301 49 17 23 31 -57 31 -59 0 -74 -3 -74 -15 0 -8 8 -15 19 -15 43 0 41 -21
-17 -172 -31 -82 -59 -148 -62 -148 -3 0 -34 79 -70 175 -45 122 -69 175 -80
175 -10 0 -35 -52 -79 -168 -35 -92 -67 -171 -71 -175 -4 -5 -20 25 -35 65
-93 246 -92 243 -47 249 12 2 24 9 25 14 1 6 -41 11 -105 13 -92 2 -108 0
-108 -13z"/>
<path d="M1825 3175 c-83 -29 -145 -132 -130 -214 9 -50 39 -104 73 -133 16
-13 91 -55 166 -92 152 -74 176 -98 176 -172 0 -81 -70 -144 -160 -144 -99 1
-174 67 -208 182 -12 42 -22 58 -34 58 -16 0 -18 -13 -18 -130 0 -108 2 -130
15 -130 8 0 21 16 29 35 l15 35 45 -34 c53 -40 129 -61 201 -53 147 15 235
134 204 277 -17 82 -60 121 -214 197 -136 67 -160 82 -188 123 -35 51 -11 131
48 156 95 39 189 -9 242 -123 39 -85 53 -71 53 52 0 98 -1 105 -20 105 -13 0
-20 -7 -20 -18 0 -38 -21 -42 -59 -12 -61 48 -141 61 -216 35z"/>
<path d="M2370 3170 c-14 -4 -42 -8 -62 -9 -31 -1 -38 -5 -38 -21 0 -14 7 -20
23 -20 46 0 47 -5 47 -345 0 -339 -1 -345 -46 -345 -13 0 -26 -5 -30 -11 -9
-15 14 -28 45 -24 14 1 65 3 114 4 64 1 87 4 87 14 0 7 -15 17 -32 22 l-33 10
-3 154 c-2 127 0 158 13 178 42 64 142 84 186 37 23 -25 24 -32 27 -188 4
-178 -1 -196 -54 -196 -15 0 -24 -6 -24 -15 0 -13 21 -15 125 -15 104 0 125 2
125 15 0 8 -9 15 -21 15 -11 0 -29 5 -40 10 -17 10 -19 23 -20 168 0 178 -9
216 -57 248 -68 46 -163 39 -227 -17 l-35 -31 0 186 0 186 -22 -1 c-13 -1 -34
-5 -48 -9z"/>
<path d="M3068 2876 c-126 -35 -200 -156 -178 -294 20 -123 116 -201 245 -202
107 0 205 65 236 157 7 21 13 65 13 99 -1 166 -157 285 -316 240z m142 -42
c54 -33 65 -66 65 -206 0 -112 -2 -130 -21 -155 -62 -85 -193 -80 -241 10 -22
42 -30 209 -13 263 14 43 45 82 75 94 34 14 105 11 135 -6z"/>
<path d="M3490 2870 c-51 -11 -75 -21 -75 -31 0 -8 12 -15 30 -17 17 -2 36
-11 43 -20 15 -20 18 -603 2 -632 -6 -11 -26 -22 -46 -26 -19 -3 -33 -11 -31
-18 2 -7 46 -12 125 -14 103 -2 122 0 122 12 0 9 -14 19 -32 24 -40 10 -47 37
-47 189 l-1 102 56 -30 c163 -85 334 27 334 220 0 80 -15 130 -52 176 -43 51
-99 77 -168 77 -55 0 -129 -27 -145 -52 -12 -20 -25 -10 -25 19 0 17 -3 32 -7
34 -5 2 -42 -3 -83 -13z m310 -49 c45 -31 70 -96 70 -179 0 -99 -15 -145 -62
-187 -32 -29 -46 -35 -84 -35 -51 0 -76 10 -116 48 -28 26 -28 26 -28 162 l0
136 29 28 c57 54 135 66 191 27z"/>
<path d="M4081 2870 c-82 -17 -100 -34 -49 -45 60 -13 58 -1 58 -340 0 -341 2
-329 -59 -341 -17 -4 -30 -12 -28 -18 2 -7 47 -12 126 -14 113 -2 122 -1 119
15 -2 11 -15 20 -33 23 l-30 5 -3 144 c-2 139 -2 144 16 128 87 -79 253 -54
321 49 99 150 39 355 -116 400 -72 21 -151 4 -205 -44 -17 -14 -18 -13 -24 17
-4 17 -9 33 -13 34 -3 2 -39 -4 -80 -13z m310 -51 c48 -34 69 -87 69 -175 0
-101 -15 -147 -62 -189 -57 -52 -133 -49 -195 8 -22 19 -23 28 -23 167 0 139
1 148 23 167 37 34 60 42 110 43 34 0 58 -6 78 -21z"/>
<path d="M4797 2876 c-103 -38 -157 -123 -157 -245 0 -88 20 -139 71 -188 93
-88 245 -85 323 7 14 17 26 38 26 46 0 23 -26 16 -44 -11 -39 -59 -132 -83
-195 -50 -43 22 -72 91 -78 185 l-6 80 162 0 161 0 0 27 c0 38 -44 108 -85
133 -44 27 -128 35 -178 16z m127 -48 c13 -13 27 -37 31 -55 l6 -32 -106 -3
-107 -3 6 30 c14 74 116 112 170 63z"/>
<path d="M2320 1895 c0 -69 3 -85 15 -85 10 0 15 11 15 35 0 24 5 35 15 35 8
0 15 7 15 15 0 8 -7 15 -15 15 -22 0 -18 27 5 33 11 3 20 12 20 21 0 12 -10
16 -35 16 l-35 0 0 -85z"/>
<path d="M2480 1895 l0 -85 35 0 c39 0 50 24 15 33 -17 4 -20 14 -20 71 0 52
-3 66 -15 66 -12 0 -15 -16 -15 -85z"/>
<path d="M2655 1964 c-23 -23 -17 -132 8 -148 33 -21 52 4 55 73 4 83 -23 115
-63 75z m35 -71 c0 -41 -3 -54 -10 -43 -11 17 -13 61 -4 84 11 28 14 18 14
-41z"/>
<path d="M2819 1975 c-6 -5 7 -131 16 -152 7 -19 35 -15 35 5 1 16 1 16 11 0
16 -29 38 -21 43 15 11 61 11 122 1 127 -5 3 -12 -8 -15 -25 l-6 -30 -7 33
c-9 43 -30 37 -38 -9 l-6 -34 -4 34 c-4 32 -18 49 -30 36z"/>
<path d="M3034 1967 c-3 -8 -4 -45 -2 -83 l3 -69 34 0 c39 0 54 22 19 27 -30
4 -38 38 -9 38 12 0 21 6 21 15 0 9 -9 15 -21 15 -29 0 -21 34 9 38 33 5 21
26 -16 30 -21 2 -34 -2 -38 -11z"/>
<path d="M3204 1967 c-10 -27 1 -150 14 -155 8 -2 12 7 12 27 0 38 17 41 22 4
2 -14 8 -28 15 -30 9 -3 12 16 12 71 0 64 -4 78 -19 86 -26 14 -50 12 -56 -3z
m46 -42 c0 -8 -4 -15 -10 -15 -5 0 -10 7 -10 15 0 8 5 15 10 15 6 0 10 -7 10
-15z"/>
<path d="M3392 1968 c-19 -19 -14 -63 8 -83 11 -10 20 -25 20 -34 -1 -14 -2
-14 -14 2 -18 23 -26 21 -26 -7 0 -29 33 -44 55 -26 21 18 18 53 -6 84 -11 14
-18 32 -16 39 4 9 6 9 6 0 1 -17 31 -17 31 0 0 16 -20 37 -35 37 -6 0 -16 -5
-23 -12z"/>
<path d="M3736 1964 c-11 -10 -16 -34 -16 -69 0 -35 5 -59 16 -69 33 -34 64
-11 64 47 0 31 -3 38 -17 35 -14 -3 -17 -12 -15 -37 2 -22 0 -31 -7 -26 -14 8
-14 92 -1 100 6 3 10 -1 10 -9 0 -9 7 -16 15 -16 22 0 18 37 -4 50 -25 13 -27
13 -45 -6z"/>
<path d="M4194 1969 c-3 -6 -2 -14 4 -18 6 -4 12 -35 14 -70 2 -40 8 -66 16
-69 9 -3 12 14 12 62 0 50 4 67 16 74 9 5 14 14 10 21 -9 14 -63 14 -72 0z"/>
<path d="M4372 1968 c-18 -18 -15 -52 8 -81 11 -14 20 -31 20 -39 -1 -8 -4 -7
-11 5 -13 22 -29 22 -29 -1 0 -38 37 -54 64 -26 22 22 20 38 -9 72 -26 31 -37
68 -13 44 14 -14 38 -16 38 -3 0 14 -29 41 -44 41 -6 0 -17 -5 -24 -12z"/>
<path d="M3902 1893 c2 -44 7 -78 13 -78 6 0 11 34 13 78 2 65 0 77 -13 77
-13 0 -15 -12 -13 -77z"/>
<path d="M4032 1893 c3 -78 20 -107 26 -45 2 20 9 32 18 32 8 0 14 7 14 15 0
8 -7 15 -15 15 -8 0 -15 9 -15 20 0 13 7 20 20 20 11 0 20 5 20 10 0 6 -16 10
-35 10 l-36 0 3 -77z"/>
<path d="M3561 1911 c-13 -24 9 -57 33 -48 23 9 31 34 16 52 -17 20 -37 19
-49 -4z"/>
</g>
</svg>
