<svg height="254pt" preserveAspectRatio="xMidYMid meet" viewBox="0 0 254 254" width="254pt" xmlns="http://www.w3.org/2000/svg"><path d="m805 2525c-117-21-130-24-222-56-111-39-302-140-303-160 0-3 8-14 18-25 9-10 34-40 55-66s43-53 50-60c14-15 89-107 98-120 3-4 46 12 95 36 347 174 744 118 1026-142 221-205 324-495 283-801-13-101-75-271-124-340l-21-29 21-78c11-44 29-110 40-148 10-38 17-71 15-73-3-3-70 13-171 41-5 1-35 8-66 15l-56 13-54-36c-72-48-205-101-304-121-79-16-239-22-302-11-18 3-46 8-61 11-56 9-154 45-233 85-45 23-83 40-84 38-3-3-67-81-163-197-21-25-43-50-50-57-20-20-15-28 43-63 128-78 277-137 417-165 100-21 396-22 500-2 488 93 885 479 998 969 26 114 29 424 5 539-95 449-413 808-845 952-58 19-143 41-189 49-103 18-320 19-416 2z" transform="matrix(.1 0 0 -.1 0 254)"/></svg>